HIERARCHY
ROOT pelvis
{
    OFFSET 0.0 81.65318298339844 0.0
    CHANNELS 6 Xposition Yposition Zposition Zrotation Yrotation Xrotation

    JOINT left_hip
    {
        OFFSET -6.2579450607299805 -2.8619766235351562 -6.082245349884033
        CHANNELS 3 Zrotation Yrotation Xrotation

        JOINT left_knee
        {
            OFFSET -10.52141284942627 -37.62826156616211 -5.4377875328063965
            CHANNELS 3 Zrotation Yrotation Xrotation

            JOINT left_ankle
            {
                OFFSET -1.2680931091308594 -32.763328552246094 -26.660234451293945
                CHANNELS 3 Zrotation Yrotation Xrotation

                JOINT left_foot
                {
                    OFFSET -5.379339218139648 -6.57317590713501 12.382387161254883
                    CHANNELS 3 Zrotation Yrotation Xrotation

                    End Site
                    {
                        OFFSET 0 0 0
                    }
                }
            }
        }
    }

    JOINT right_hip
    {
        OFFSET 6.0297465324401855 -3.8543472290039062 -5.498012542724609
        CHANNELS 3 Zrotation Yrotation Xrotation

        JOINT right_knee
        {
            OFFSET 11.248929977416992 -28.07082748413086 26.73432159423828
            CHANNELS 3 Zrotation Yrotation Xrotation

            JOINT right_ankle
            {
                OFFSET -4.283781051635742 -36.05206298828125 -24.044275283813477
                CHANNELS 3 Zrotation Yrotation Xrotation

                JOINT right_foot
                {
                    OFFSET 7.5921173095703125 -7.391049861907959 9.666322708129883
                    CHANNELS 3 Zrotation Yrotation Xrotation

                    End Site
                    {
                        OFFSET 0 0 0
                    }
                }
            }
        }
    }

    JOINT spine1
    {
        OFFSET 0.17806538939476013 17.08795166015625 3.612271308898926
        CHANNELS 3 Zrotation Yrotation Xrotation

        JOINT spine2
        {
            OFFSET 1.249693512916565 2.197723388671875 12.80622386932373
            CHANNELS 3 Zrotation Yrotation Xrotation

            JOINT spine3
            {
                OFFSET 0.7521204948425293 0.8242340087890625 6.035947799682617
                CHANNELS 3 Zrotation Yrotation Xrotation

                JOINT left_collar
                {
                    OFFSET -6.274387359619141 4.2811737060546875 11.080110549926758
                    CHANNELS 3 Zrotation Yrotation Xrotation

                    JOINT left_shoulder
                    {
                        OFFSET -12.916934967041016 0.13520050048828125 2.974414825439453
                        CHANNELS 3 Zrotation Yrotation Xrotation

                        JOINT left_elbow
                        {
                            OFFSET -14.962116241455078 -6.8835601806640625 -17.14424705505371
                            CHANNELS 3 Zrotation Yrotation Xrotation

                            JOINT left_wrist
                            {
                                OFFSET 17.82318878173828 -22.764846801757812 7.387216567993164
                                CHANNELS 3 Zrotation Yrotation Xrotation

                                End Site
                                {
                                    OFFSET 0 0 0
                                }
                            }
                        }
                    }
                }

                JOINT right_collar
                {
                    OFFSET 9.095366477966309 5.121147155761719 8.748212814331055
                    CHANNELS 3 Zrotation Yrotation Xrotation

                    JOINT right_shoulder
                    {
                        OFFSET 11.573535919189453 2.6248321533203125 0.1194305419921875
                        CHANNELS 3 Zrotation Yrotation Xrotation

                        JOINT right_elbow
                        {
                            OFFSET 3.9623241424560547 5.1966705322265625 -26.987993240356445
                            CHANNELS 3 Zrotation Yrotation Xrotation

                            JOINT right_wrist
                            {
                                OFFSET -1.7527885437011719 -27.968368530273438 -6.491111755371094
                                CHANNELS 3 Zrotation Yrotation Xrotation

                                End Site
                                {
                                    OFFSET 0 0 0
                                }
                            }
                        }
                    }
                }

                JOINT neck
                {
                    OFFSET 3.039973020553589 10.840873718261719 19.669397354125977
                    CHANNELS 3 Zrotation Yrotation Xrotation

                    JOINT head
                    {
                        OFFSET -0.6560630798339844 4.12078857421875 9.417743682861328
                        CHANNELS 3 Zrotation Yrotation Xrotation

                        End Site
                        {
                            OFFSET 0 0 0
                        }
                    }
                }
            }
        }
    }

}

MOTION
Frames: 5
Frame Time: 0.050000
-56.870079 87.464157 659.499817 0.000000 0.000000 -0.000000 6.066076 5.504900 -4.652756 1.243236 -3.725472 1.335673 -20.757917 -0.979025 2.253109 0.000000 0.000000 -0.000000 -21.347144 -10.767937 -0.791164 26.587485 13.456040 -65.774733 96.821679 -25.379070 5.373734 0.000000 0.000000 -0.000000 6.435108 -62.292548 -79.743204 21.548350 4.507201 7.993368 0.000000 0.000000 -0.000000 -6.583443 4.934216 5.289680 3.348715 -25.825137 -90.584026 -24.794809 -53.446362 -43.607256 0.000000 0.000000 -0.000000 -3.424747 -17.368436 -6.932737 6.577767 12.757691 -52.469796 7.020368 29.334415 78.470278 0.000000 0.000000 -0.000000 -18.044427 13.042254 -25.468103 0.000000 0.000000 -0.000000
-59.187454 85.568565 670.919373 0.000000 0.000000 -0.000000 0.820824 2.181418 3.869922 2.184574 5.520229 3.026363 -8.080014 -1.305157 3.497627 0.000000 0.000000 -0.000000 -28.434595 -13.214164 -3.055796 36.770174 17.687764 -70.756953 93.030943 -29.808667 5.180474 0.000000 0.000000 -0.000000 -4.768731 -63.830592 -94.178333 21.541616 5.361332 10.459754 0.000000 0.000000 -0.000000 -7.773784 5.358631 6.261140 -2.523360 -30.111284 -102.624242 131.002063 -49.044595 -45.521247 0.000000 0.000000 -0.000000 -0.606251 -21.048022 -4.676669 8.157429 13.167028 -44.227546 2.088514 27.121344 85.237080 0.000000 0.000000 -0.000000 -12.629942 10.438638 -25.699244 0.000000 0.000000 -0.000000
-62.315739 82.284073 682.032227 0.000000 0.000000 -0.000000 -5.177342 -5.243269 4.818965 1.013057 16.723154 13.709829 4.968041 6.368637 12.848427 0.000000 0.000000 -0.000000 -32.265528 -12.176497 -7.119570 22.494529 27.099356 -47.582522 30.408640 -26.078893 -2.792460 0.000000 0.000000 -0.000000 -9.444860 -64.476832 -100.493756 23.077220 3.985452 11.860017 0.000000 0.000000 -0.000000 -3.729984 6.082694 2.976855 1.567783 -28.348476 -104.452674 -174.961477 -47.827021 -40.556063 0.000000 0.000000 -0.000000 0.268636 -21.625285 -3.882932 7.707663 12.026157 -40.768927 -0.547357 23.937692 88.803044 0.000000 0.000000 -0.000000 -12.352655 9.778272 -24.052985 0.000000 0.000000 -0.000000
-65.042130 81.756554 690.302429 0.000000 0.000000 -0.000000 -10.892940 -13.067094 -9.228503 -3.178380 24.908605 34.721618 7.796143 9.773363 19.917919 0.000000 0.000000 -0.000000 -39.468036 -12.850013 -10.910593 9.946508 36.754089 -26.662849 18.507711 -9.342772 -12.669042 0.000000 0.000000 -0.000000 1.273051 -67.030153 -90.227925 21.541087 4.704416 10.550011 0.000000 0.000000 -0.000000 3.335772 3.657130 -2.731568 18.854825 -20.223291 -89.230334 106.921804 -48.807632 -29.303679 0.000000 0.000000 -0.000000 -2.455589 -20.538338 -6.478471 6.876168 12.553679 -45.314896 -1.951137 19.620291 91.824085 0.000000 0.000000 -0.000000 -17.961739 12.435576 -23.982855 0.000000 0.000000 -0.000000
-66.719666 83.686287 695.720581 0.000000 0.000000 -0.000000 -12.887707 -15.105210 -27.038285 -4.033183 22.621192 47.697633 3.847288 2.681292 17.664318 0.000000 0.000000 -0.000000 -40.084011 -16.387134 -7.421897 8.427229 35.835398 -26.212752 15.923590 -4.140803 -16.345248 0.000000 0.000000 -0.000000 20.213016 -67.990763 -70.921520 19.845513 4.908843 7.348917 0.000000 0.000000 -0.000000 9.464458 0.833454 -7.579700 32.697571 -7.950657 -70.943870 -48.912009 -53.652861 -18.188306 0.000000 0.000000 -0.000000 -4.673303 -20.764171 -8.790840 6.829404 11.564911 -51.743532 1.922527 22.637609 84.953066 0.000000 0.000000 -0.000000 -25.957663 16.246008 -23.680319 0.000000 0.000000 -0.000000
